<svg width="26" height="23" viewBox="0 0 26 23" fill="none" xmlns="http://www.w3.org/2000/svg">
<path d="M7.23776 7.48591L4.42725 10.3149L12.1594 18.0979L26.0004 4.16591L23.1908 1.33691L12.1594 12.4389L7.23776 7.48591Z" fill="#4D4D4D"/>
<path d="M20.8628 20C20.8628 20.542 20.4078 21 19.8693 21H2.9804C2.44194 21 1.98693 20.542 1.98693 20V3C1.98693 2.458 2.44194 2 2.9804 2H19.7779L21.3526 0.415C20.9035 0.146542 20.3916 0.00329969 19.8693 0H2.9804C1.34118 0 0 1.35 0 3V20C0 21.65 1.34118 23 2.9804 23H19.8693C21.5085 23 22.8497 21.65 22.8497 20V10.171L20.8628 12.171V20Z" fill="#4D4D4D"/>
</svg>
